<svg width="319" height="312" viewBox="0 0 319 312" fill="none" xmlns="http://www.w3.org/2000/svg">
<rect width="319" height="312" rx="24" fill="#8C52FF"/>
<path fill-rule="evenodd" clip-rule="evenodd" d="M119.352 114.556C122.965 110.946 124.046 105.514 122.089 100.795C120.135 96.0758 115.53 93 110.421 93H83.6295C76.655 93 71 98.6529 71 105.627V132.417C71 137.524 74.078 142.13 78.7972 144.085C83.5165 146.04 88.9477 144.959 92.5607 141.346L97.0135 136.895L146.771 186.134L146.756 257.171C146.756 264.145 152.426 269.8 159.4 269.8C166.374 269.8 172.015 264.145 172.015 257.171L172.029 186.134L221.772 136.878L226.239 141.346C229.852 144.959 235.283 146.04 240.003 144.085C244.722 142.13 247.8 137.524 247.8 132.417V105.627C247.8 98.6529 242.145 93 235.171 93H208.379C203.27 93 198.665 96.0758 196.711 100.795C194.754 105.514 195.835 110.946 199.448 114.556L203.909 119.018L159.4 164.034L114.874 119.035L119.352 114.556Z" fill="#FFE457"/>
<path fill-rule="evenodd" clip-rule="evenodd" d="M159.396 269.8C166.37 269.8 172.01 264.145 172.01 257.171L172.025 186.134L221.767 136.878L226.235 141.346C229.848 144.959 235.279 146.04 239.998 144.085C244.718 142.13 247.796 137.524 247.796 132.417V105.627C247.796 98.6529 242.14 93 235.166 93H208.374C203.265 93 198.661 96.0758 196.706 100.795C194.75 105.514 195.83 110.946 199.443 114.556L203.905 119.018L159.396 164.034V269.8Z" fill="#FFC83C"/>
</svg>
