<svg width="775" height="273" viewBox="0 0 775 273" fill="none" xmlns="http://www.w3.org/2000/svg">
<rect width="775" height="273" rx="24" fill="#FFCD1B"/>
<path d="M432.732 182.492C417.536 183.612 405.55 182.299 405.55 182.299C439.941 181.79 458.641 173.895 465.948 170.587C473.258 167.282 474.911 156.946 474.776 139.447C474.637 121.948 469.245 111.73 466.945 113.469C466.945 113.469 466.945 113.463 466.945 113.46C464.215 115.064 459.934 116.584 454.36 118.199C443.655 121.303 435.309 122.719 435.309 122.719C435.309 122.719 461.702 115.775 465.396 111.237C466.487 109.893 464.195 107.48 462.332 105.862C463.582 107.877 464.16 109.199 464.215 109.331C464.532 110.083 464.258 110.955 463.559 111.384C462.833 111.833 445.296 122.382 402.68 126.237C398.183 126.643 393.927 126.831 389.923 126.831C360.104 126.831 343.906 116.713 339.751 113.708C343.319 118.913 359.868 126.537 381.783 127.827C381.783 127.827 362.816 130.294 343.955 122.014C325.96 114.116 329.358 107.621 334.531 102.508C333.086 103.173 331.817 103.873 330.774 104.615C321.561 111.162 322.9 140.728 323.614 156.612C323.741 159.376 323.853 161.766 323.893 163.723C324.02 169.139 333.964 174.825 350.496 178.931C366.302 182.858 386.528 185.086 404.658 184.847C414.864 184.718 424.291 183.837 432.732 182.492Z" fill="#FF5F4A"/>
<path d="M448.884 95.6828C441.689 90.5637 430.847 85.7297 414.865 84.4715C414.865 84.4715 435.272 89.0925 443.178 97.1626C451.084 105.23 448.51 112.379 439.87 114.866C439.87 114.866 443.791 114.76 448.052 114.267C438.453 117.4 423.536 121.03 402.366 122.945C366.101 126.23 346.302 114.244 341.796 111.1C342.919 108.846 346.034 103.491 352.538 98.035C360.421 91.4217 375.038 83.2969 399.922 82.1366C424.317 81.0051 439.654 88.223 448.884 95.6828ZM350.479 178.932C333.947 174.827 324.003 169.14 323.876 163.725C323.836 161.767 323.724 159.377 323.597 156.613C322.883 140.729 321.544 111.164 330.757 104.617C331.799 103.874 333.069 103.174 334.514 102.509C329.341 107.622 325.943 114.118 343.938 122.015C362.799 130.295 381.766 127.828 381.766 127.828C359.851 126.538 343.302 118.914 339.734 113.709C343.889 116.715 360.087 126.832 389.906 126.832C393.91 126.832 398.166 126.645 402.663 126.239C445.279 122.384 462.816 111.835 463.542 111.385C464.241 110.956 464.515 110.084 464.198 109.333C464.143 109.2 463.565 107.879 462.315 105.863C464.178 107.481 466.47 109.894 465.379 111.239C461.685 115.776 435.292 122.72 435.292 122.72C435.292 122.72 443.638 121.304 454.343 118.2C459.917 116.585 464.198 115.065 466.928 113.461C466.928 113.464 466.928 113.47 466.928 113.47C469.228 111.731 474.62 121.949 474.759 139.448C474.894 156.947 473.241 167.283 465.931 170.589C458.624 173.897 439.924 181.791 405.533 182.301C405.533 182.301 417.519 183.614 432.715 182.494C424.274 183.838 414.847 184.719 404.641 184.849C386.511 185.088 366.285 182.859 350.479 178.932ZM475.884 110.312C474.206 106.701 468.531 103.583 458.757 100.931C456.761 98.5014 454.159 95.7807 450.793 93.0801C441.868 85.914 425.785 77.6078 399.769 78.8343C375.833 79.9485 360.809 87.1405 351.588 94.4505C341.462 96.1118 333.429 98.6598 328.84 101.922C318.158 109.514 319.494 139.091 320.295 156.763C320.421 159.51 320.525 161.879 320.568 163.797C320.784 173.036 336.518 178.872 349.682 182.142C365.001 185.949 384.407 188.171 402.11 188.171C402.971 188.171 403.829 188.165 404.684 188.154C443.178 187.673 468.785 177.138 475.879 170.609C484.352 162.818 480.292 119.821 475.884 110.312Z" fill="#D44E3C"/>
<path d="M352.556 98.0337C346.052 103.49 342.937 108.845 341.814 111.099C346.32 114.243 366.12 126.229 402.385 122.944C423.555 121.029 438.472 117.399 448.071 114.266C443.81 114.758 439.888 114.865 439.888 114.865C448.529 112.377 451.102 105.229 443.196 97.1613C435.29 89.0912 414.883 84.4702 414.883 84.4702C430.865 85.7284 441.708 90.5624 448.903 95.6814C439.672 88.2217 424.335 81.0037 399.941 82.1352C375.057 83.2955 360.439 91.4204 352.556 98.0337Z" fill="#FF5F4A"/>
<path d="M684.125 144.57C688.678 147.148 692.41 150.023 695.158 153.129C698.774 157.215 700.746 161.717 700.746 166.506C700.746 176.912 691.298 186.034 676.018 192.368C661.666 198.32 641.931 201.999 620.219 201.999C598.503 201.999 578.768 198.32 564.417 192.368C549.139 186.034 539.688 176.912 539.688 166.506C539.688 161.717 541.664 157.215 545.277 153.129C548.024 150.023 551.757 147.148 556.307 144.57L556.217 145.738L557.249 145.823C557.525 146.564 557.87 147.273 558.255 147.883C559.158 149.306 560.23 150.644 561.353 151.881C566.36 157.395 573.146 161.406 579.875 164.143C592.464 169.262 606.796 170.862 620.219 170.862C633.638 170.862 647.976 169.262 660.565 164.141C667.294 161.404 674.08 157.395 679.084 151.879C680.207 150.644 681.279 149.304 682.179 147.881C682.567 147.27 682.909 146.564 683.188 145.823L684.218 145.738L684.125 144.57Z" fill="#FF5F4A"/>
<path d="M681.635 152.811C675.152 159.655 658.377 171.471 620.222 171.471C582.071 171.471 565.296 159.66 558.811 152.811C557.374 151.295 556.424 150.029 555.832 149.137C554.953 147.81 554.613 146.204 554.542 145.569L554.502 145.566C559.976 78.4744 585.644 70.659 604.123 72.1616C608.679 72.5332 612.664 73.4756 615.801 74.2216C617.838 74.7021 619.46 75.087 620.222 75.087C620.981 75.087 622.605 74.7021 624.642 74.2189C627.779 73.4756 631.767 72.5332 636.322 72.1616C654.799 70.659 680.467 78.4771 685.941 145.566L685.899 145.569C685.827 146.204 685.49 147.807 684.608 149.134C684.019 150.029 683.071 151.295 681.635 152.811Z" fill="#D54E3C"/>
<path d="M564.174 149.096L564.103 149.319L564.15 149.324C564.153 149.292 564.164 149.207 564.174 149.096Z" fill="#212121"/>
<path d="M564.27 148.135C564.249 148.408 564.222 148.676 564.198 148.952C564.241 148.602 564.296 148.135 564.312 148.105L564.27 148.135Z" fill="#212121"/>
<path d="M676.271 149.096C676.285 149.207 676.293 149.292 676.295 149.324L676.343 149.319L676.271 149.096Z" fill="#212121"/>
<path d="M676.137 148.105C676.153 148.135 676.208 148.591 676.248 148.936C676.227 148.668 676.203 148.403 676.177 148.132L676.137 148.105Z" fill="#212121"/>
<path d="M627.25 153.037C625.241 153.178 623.727 154.919 623.871 156.926C624.014 158.933 625.756 160.444 627.765 160.3C636.512 159.666 644.145 158.479 650.651 156.738C657.317 154.956 662.86 152.57 667.27 149.581C668.934 148.455 669.37 146.198 668.241 144.537C667.113 142.875 664.854 142.442 663.192 143.568C659.491 146.074 654.681 148.118 648.769 149.7C642.7 151.322 635.525 152.434 627.25 153.037Z" fill="#FF5F4A"/>
<path d="M209.516 170.506C209.516 170.506 215.555 171.367 226.769 178.16C237.984 184.956 245.653 188.975 254.184 186.678C262.715 184.381 261.206 174.506 259.84 172.037C258.472 169.568 253.321 163.615 245.27 161.222C237.216 158.83 214.692 164.478 209.516 170.506Z" fill="#CE4949"/>
<path d="M78.3273 170.328L76.7461 177.013C76.7461 177.013 92.9388 176 113.479 171.624C134.021 167.247 150.098 166.278 141.49 161.98C132.886 157.681 100.029 152.756 78.3273 170.328Z" fill="#CE4949"/>
<path d="M76.7454 177.018C76.7454 177.018 71.7594 159.41 73.293 146.778C74.8267 134.146 79.2373 115.77 94.7663 101.799C110.295 87.8266 121.296 82.3762 138.895 82.0386C156.497 81.7034 166.596 82.2788 182.347 90.5065C198.098 98.7366 211.328 124.765 214.585 144.288C214.585 144.288 247.37 157.686 252.163 162.472C256.954 167.257 259.831 171.083 259.831 172.041C259.831 172.997 254.08 164.96 247.177 163.619C240.277 162.28 226.855 162.472 218.613 168.596C210.37 174.721 190.111 189.267 180.78 190.989C171.451 192.713 160.169 193.669 143.669 184.097C127.165 174.529 115.854 164.384 115.854 164.384C115.854 164.384 85.5644 171.466 76.7454 177.018Z" fill="#FF5F4A"/>
<path d="M138.332 82.8971C138.332 82.8971 140.888 82.0362 140.403 80.2647C139.916 78.4955 134.642 78.2554 131.24 79.4515C127.837 80.6476 125.68 82.8971 128.795 83.8055C131.91 84.7161 138.332 82.8971 138.332 82.8971Z" fill="#FF5F4A"/>
<path d="M113.956 166.623L113.886 165.674C113.879 165.565 113.097 154.746 113.138 141.985C113.19 124.809 114.622 112.484 117.395 105.35C120.845 96.4699 125.025 90.6434 127.926 87.3179C131.093 83.6888 133.427 82.1846 133.524 82.1234C133.825 81.9308 134.226 82.0192 134.421 82.3205C134.614 82.624 134.525 83.025 134.222 83.2153C134.095 83.2991 125.038 89.2638 118.605 105.819C112.663 121.117 114.71 158.221 115.118 164.632C118.328 163.117 130.056 157.668 143.777 152.268C165.389 143.761 181.389 139.421 191.334 139.364C209.534 139.258 214.794 143.61 215.009 143.793C215.279 144.029 215.31 144.437 215.075 144.708C214.841 144.98 214.431 145.01 214.159 144.776C214.114 144.738 209.053 140.66 191.957 140.66C191.753 140.66 191.549 140.66 191.341 140.662C181.697 140.717 165.416 145.146 144.262 153.471C128.241 159.775 114.948 166.148 114.815 166.211L113.956 166.623Z" fill="#CE4949"/>
</svg>
