<svg width="319" height="312" viewBox="0 0 319 312" fill="none" xmlns="http://www.w3.org/2000/svg">
<rect width="319" height="312" rx="24" fill="#FFCD1B"/>
<path d="M179.229 177.956C172.449 178.456 167.102 177.87 167.102 177.87C182.445 177.643 190.788 174.12 194.048 172.645C197.309 171.17 198.047 166.559 197.986 158.752C197.924 150.944 195.519 146.386 194.492 147.162C194.492 147.162 194.492 147.159 194.492 147.158C193.275 147.873 191.365 148.551 188.878 149.272C184.102 150.657 180.378 151.289 180.378 151.289C180.378 151.289 192.153 148.19 193.801 146.166C194.288 145.566 193.266 144.49 192.435 143.768C192.992 144.667 193.25 145.257 193.275 145.316C193.416 145.651 193.294 146.04 192.982 146.232C192.658 146.432 184.834 151.138 165.821 152.858C163.815 153.039 161.916 153.123 160.13 153.123C146.826 153.123 139.6 148.609 137.746 147.268C139.338 149.591 146.721 152.992 156.498 153.567C156.498 153.567 148.036 154.668 139.621 150.974C131.593 147.451 133.109 144.553 135.417 142.271C134.772 142.568 134.206 142.88 133.741 143.212C129.631 146.133 130.228 159.323 130.547 166.41C130.603 167.643 130.653 168.709 130.671 169.582C130.728 171.998 135.164 174.535 142.54 176.367C149.592 178.119 158.615 179.113 166.704 179.007C171.257 178.949 175.463 178.556 179.229 177.956Z" fill="#FF5F4A"/>
<path d="M186.435 139.225C183.225 136.941 178.388 134.785 171.257 134.223C171.257 134.223 180.362 136.285 183.889 139.886C187.416 143.485 186.268 146.674 182.413 147.784C182.413 147.784 184.163 147.736 186.064 147.517C181.781 148.914 175.126 150.534 165.681 151.388C149.502 152.854 140.669 147.506 138.658 146.104C139.159 145.098 140.549 142.709 143.451 140.275C146.968 137.324 153.489 133.699 164.591 133.182C175.474 132.677 182.317 135.897 186.435 139.225ZM142.532 176.366C135.157 174.535 130.72 171.998 130.664 169.582C130.646 168.708 130.596 167.642 130.539 166.409C130.22 159.322 129.623 146.132 133.734 143.211C134.199 142.88 134.765 142.568 135.41 142.271C133.102 144.552 131.586 147.45 139.614 150.973C148.029 154.667 156.491 153.567 156.491 153.567C146.713 152.991 139.33 149.59 137.739 147.267C139.592 148.608 146.819 153.122 160.122 153.122C161.909 153.122 163.807 153.039 165.814 152.858C184.827 151.138 192.651 146.431 192.974 146.231C193.286 146.04 193.408 145.65 193.267 145.315C193.243 145.256 192.985 144.666 192.427 143.767C193.258 144.489 194.281 145.566 193.794 146.165C192.146 148.19 180.371 151.288 180.371 151.288C180.371 151.288 184.095 150.656 188.87 149.271C191.357 148.551 193.267 147.872 194.485 147.157C194.485 147.158 194.485 147.161 194.485 147.161C195.511 146.385 197.917 150.944 197.979 158.751C198.039 166.558 197.302 171.169 194.04 172.644C190.78 174.12 182.438 177.642 167.094 177.869C167.094 177.869 172.442 178.455 179.221 177.955C175.455 178.555 171.25 178.948 166.696 179.006C158.608 179.113 149.584 178.118 142.532 176.366ZM198.481 145.752C197.732 144.141 195.2 142.75 190.84 141.567C189.949 140.483 188.788 139.269 187.287 138.064C183.305 134.867 176.13 131.161 164.523 131.708C153.844 132.206 147.141 135.414 143.027 138.676C138.509 139.417 134.926 140.553 132.878 142.009C128.113 145.396 128.709 158.592 129.066 166.476C129.122 167.701 129.168 168.758 129.188 169.614C129.284 173.736 136.304 176.339 142.177 177.799C149.011 179.497 157.669 180.488 165.567 180.488C165.951 180.488 166.334 180.486 166.715 180.481C183.889 180.266 195.313 175.566 198.478 172.653C202.259 169.177 200.447 149.994 198.481 145.752Z" fill="#D44E3C"/>
<path d="M143.459 140.274C140.558 142.708 139.168 145.098 138.667 146.103C140.677 147.506 149.511 152.853 165.69 151.388C175.135 150.534 181.79 148.914 186.072 147.516C184.171 147.736 182.422 147.783 182.422 147.783C186.277 146.674 187.425 143.484 183.898 139.885C180.371 136.285 171.266 134.223 171.266 134.223C178.396 134.784 183.234 136.941 186.444 139.225C182.326 135.897 175.483 132.677 164.6 133.181C153.498 133.699 146.976 137.324 143.459 140.274Z" fill="#FF5F4A"/>
<path d="M289.125 159.379C291.156 160.529 292.821 161.812 294.047 163.197C295.66 165.02 296.54 167.029 296.54 169.165C296.54 173.808 292.325 177.878 285.508 180.704C279.105 183.359 270.3 185 260.613 185C250.925 185 242.121 183.359 235.718 180.704C228.902 177.878 224.686 173.808 224.686 169.165C224.686 167.029 225.567 165.02 227.179 163.197C228.404 161.812 230.07 160.529 232.1 159.379L232.059 159.9L232.52 159.938C232.643 160.268 232.797 160.585 232.969 160.857C233.372 161.492 233.85 162.089 234.351 162.641C236.585 165.101 239.612 166.89 242.615 168.111C248.231 170.395 254.625 171.109 260.613 171.109C266.6 171.109 272.997 170.395 278.614 168.11C281.616 166.889 284.643 165.101 286.876 162.639C287.377 162.089 287.855 161.491 288.257 160.856C288.43 160.583 288.582 160.268 288.707 159.938L289.166 159.9L289.125 159.379Z" fill="#FF5F4A"/>
<path d="M288.013 163.053C285.121 166.107 277.637 171.378 260.614 171.378C243.594 171.378 236.11 166.109 233.216 163.053C232.575 162.377 232.151 161.812 231.887 161.414C231.495 160.822 231.344 160.105 231.312 159.822L231.294 159.821C233.736 129.889 245.188 126.402 253.432 127.072C255.465 127.238 257.242 127.658 258.642 127.991C259.551 128.206 260.274 128.377 260.614 128.377C260.953 128.377 261.678 128.206 262.586 127.99C263.986 127.658 265.765 127.238 267.797 127.072C276.041 126.402 287.492 129.89 289.935 159.821L289.916 159.822C289.884 160.105 289.733 160.821 289.34 161.413C289.077 161.812 288.654 162.377 288.013 163.053Z" fill="#D54E3C"/>
<path d="M235.609 161.395L235.577 161.494L235.598 161.496C235.6 161.482 235.604 161.444 235.609 161.395Z" fill="#212121"/>
<path d="M235.652 160.968C235.643 161.09 235.631 161.21 235.62 161.333C235.639 161.177 235.664 160.968 235.671 160.955L235.652 160.968Z" fill="#212121"/>
<path d="M285.621 161.395C285.627 161.444 285.631 161.482 285.632 161.496L285.653 161.494L285.621 161.395Z" fill="#212121"/>
<path d="M285.561 160.955C285.568 160.968 285.593 161.172 285.61 161.326C285.601 161.206 285.59 161.088 285.578 160.967L285.561 160.955Z" fill="#212121"/>
<path d="M263.75 163.154C262.854 163.217 262.179 163.994 262.242 164.89C262.306 165.785 263.083 166.459 263.98 166.395C267.882 166.112 271.288 165.582 274.19 164.805C277.164 164.011 279.637 162.946 281.605 161.612C282.347 161.11 282.541 160.103 282.038 159.362C281.535 158.621 280.527 158.428 279.785 158.93C278.134 160.048 275.988 160.96 273.351 161.666C270.643 162.389 267.442 162.886 263.75 163.154Z" fill="#FF5F4A"/>
<path d="M81.9053 171.443C81.9053 171.443 84.5997 171.827 89.6025 174.858C94.6064 177.89 98.0275 179.683 101.834 178.659C105.64 177.634 104.967 173.228 104.357 172.127C103.747 171.025 101.449 168.369 97.8567 167.302C94.2638 166.234 84.2147 168.754 81.9053 171.443Z" fill="#CE4949"/>
<path d="M23.3773 171.363L22.6719 174.345C22.6719 174.345 29.8961 173.894 39.0599 171.941C48.2247 169.988 55.3974 169.556 51.5568 167.639C47.7183 165.72 33.0595 163.523 23.3773 171.363Z" fill="#CE4949"/>
<path d="M22.671 174.351C22.671 174.351 20.4465 166.495 21.1307 160.859C21.8149 155.224 23.7827 147.025 30.7109 140.793C37.639 134.559 42.5468 132.127 50.3987 131.976C58.2516 131.827 62.7572 132.084 69.7844 135.754C76.8116 139.426 82.7139 151.039 84.1673 159.749C84.1673 159.749 98.7937 165.726 100.932 167.861C103.07 169.996 104.353 171.703 104.353 172.13C104.353 172.557 101.787 168.971 98.7078 168.373C95.6293 167.775 89.6411 167.861 85.9642 170.593C82.2864 173.326 73.248 179.816 69.085 180.584C64.9231 181.353 59.8899 181.779 52.5282 177.509C45.1655 173.24 40.1192 168.714 40.1192 168.714C40.1192 168.714 26.6055 171.874 22.671 174.351Z" fill="#FF5F4A"/>
<path d="M50.1481 132.358C50.1481 132.358 51.2881 131.974 51.0718 131.183C50.8545 130.394 48.5017 130.287 46.9837 130.821C45.4656 131.354 44.5035 132.358 45.8931 132.763C47.2828 133.169 50.1481 132.358 50.1481 132.358Z" fill="#FF5F4A"/>
<path d="M39.2718 169.711L39.2405 169.288C39.2374 169.239 38.8887 164.412 38.9069 158.719C38.9302 151.056 39.5689 145.557 40.806 142.375C42.3452 138.413 44.2099 135.813 45.5046 134.33C46.9175 132.711 47.9585 132.04 48.002 132.012C48.1364 131.926 48.3153 131.966 48.4022 132.1C48.4881 132.236 48.4487 132.415 48.3132 132.499C48.2567 132.537 44.216 135.198 41.3457 142.584C38.6947 149.409 39.6083 165.963 39.7903 168.823C41.2224 168.147 46.4546 165.716 52.5763 163.307C62.2181 159.512 69.3564 157.575 73.7933 157.55C81.913 157.502 84.2598 159.444 84.3558 159.526C84.4761 159.631 84.4902 159.813 84.3851 159.934C84.281 160.055 84.0981 160.068 83.9768 159.964C83.9566 159.947 81.6987 158.128 74.0712 158.128C73.9802 158.128 73.8893 158.128 73.7963 158.129C69.4939 158.153 62.2302 160.129 52.7925 163.843C45.6451 166.656 39.7145 169.499 39.6548 169.527L39.2718 169.711Z" fill="#CE4949"/>
</svg>
