<svg width="24" height="24" viewBox="0 0 24 24" fill="none" xmlns="http://www.w3.org/2000/svg">
<path d="M4.26401 5.9856C4.46438 5.13137 5.13137 4.46438 5.9856 4.26401V4.26401C6.72589 4.09036 7.49633 4.09036 8.23662 4.26401V4.26401C9.09085 4.46438 9.75784 5.13137 9.95821 5.9856V5.9856C10.1319 6.72589 10.1319 7.49633 9.95821 8.23662V8.23662C9.75784 9.09085 9.09085 9.75784 8.23662 9.95821V9.95821C7.49633 10.1319 6.72589 10.1319 5.9856 9.95821V9.95821C5.13137 9.75784 4.46438 9.09085 4.26401 8.23663V8.23663C4.09036 7.49633 4.09036 6.72589 4.26401 5.9856V5.9856Z" stroke="#828282" stroke-width="1.5"/>
<path d="M4.26401 15.7634C4.46438 14.9092 5.13137 14.2422 5.9856 14.0418V14.0418C6.72589 13.8682 7.49633 13.8682 8.23662 14.0418V14.0418C9.09085 14.2422 9.75784 14.9092 9.95821 15.7634V15.7634C10.1319 16.5037 10.1319 17.2742 9.95821 18.0145V18.0145C9.75784 18.8687 9.09085 19.5357 8.23662 19.736V19.736C7.49633 19.9097 6.72589 19.9097 5.9856 19.736V19.736C5.13137 19.5357 4.46438 18.8687 4.26401 18.0145V18.0145C4.09036 17.2742 4.09036 16.5037 4.26401 15.7634V15.7634Z" stroke="#828282" stroke-width="1.5"/>
<path d="M14.0418 5.9856C14.2422 5.13137 14.9092 4.46438 15.7634 4.26401V4.26401C16.5037 4.09036 17.2742 4.09036 18.0145 4.26401V4.26401C18.8687 4.46438 19.5357 5.13137 19.736 5.9856V5.9856C19.9097 6.72589 19.9097 7.49633 19.736 8.23662V8.23662C19.5357 9.09085 18.8687 9.75784 18.0145 9.95821V9.95821C17.2742 10.1319 16.5037 10.1319 15.7634 9.95821V9.95821C14.9092 9.75784 14.2422 9.09085 14.0418 8.23663V8.23663C13.8682 7.49633 13.8682 6.72589 14.0418 5.9856V5.9856Z" stroke="#828282" stroke-width="1.5"/>
<path d="M14.0418 15.7634C14.2422 14.9092 14.9092 14.2422 15.7634 14.0418V14.0418C16.5037 13.8682 17.2742 13.8682 18.0145 14.0418V14.0418C18.8687 14.2422 19.5357 14.9092 19.736 15.7634V15.7634C19.9097 16.5037 19.9097 17.2742 19.736 18.0145V18.0145C19.5357 18.8687 18.8687 19.5357 18.0145 19.736V19.736C17.2742 19.9097 16.5037 19.9097 15.7634 19.736V19.736C14.9092 19.5357 14.2422 18.8687 14.0418 18.0145V18.0145C13.8682 17.2742 13.8682 16.5037 14.0418 15.7634V15.7634Z" stroke="#828282" stroke-width="1.5"/>
</svg>
